<svg width="32" height="32" viewBox="0 0 32 32" fill="none" xmlns="http://www.w3.org/2000/svg">
<g clip-path="url(#clip0_526_2)">
<path fill-rule="evenodd" clip-rule="evenodd" d="M15.952 0C11.7214 0.000530313 7.66428 1.68135 4.67282 4.67282C1.68135 7.66428 0.000530313 11.7214 0 15.952C0 22.996 4.6 28.966 10.862 31.12C11.646 31.218 11.938 30.728 11.938 30.336V27.596C7.536 28.576 6.558 25.444 6.558 25.444C5.872 23.584 4.796 23.094 4.796 23.094C3.328 22.116 4.892 22.116 4.892 22.116C6.458 22.214 7.34 23.78 7.34 23.78C8.808 26.226 11.058 25.54 11.94 25.15C12.036 24.074 12.526 23.39 12.918 22.998C9.394 22.606 5.676 21.236 5.676 15.07C5.676 13.31 6.262 11.938 7.34 10.764C7.24 10.47 6.654 8.808 7.536 6.654C7.536 6.654 8.906 6.262 11.938 8.318C13.21 7.926 14.582 7.828 15.952 7.828C17.322 7.828 18.692 8.024 19.964 8.318C22.998 6.264 24.368 6.654 24.368 6.654C25.248 8.808 24.66 10.47 24.562 10.862C25.6398 12.0362 26.2341 13.5742 26.226 15.168C26.226 21.334 22.506 22.606 18.986 22.998C19.572 23.486 20.062 24.464 20.062 25.932V30.336C20.062 30.728 20.354 31.216 21.138 31.12C24.31 30.0495 27.0654 28.0091 29.0145 25.2873C30.9637 22.5654 32.008 19.2998 32 15.952C31.902 7.144 24.76 0 15.952 0Z" fill="white"/>
</g>
<defs>
<clipPath id="clip0_526_2">
<rect width="32" height="32" fill="white"/>
</clipPath>
</defs>
</svg>
