<svg width="50" height="50" viewBox="0 0 50 50" fill="none" xmlns="http://www.w3.org/2000/svg">
<g id="mingcute:close-fill" clip-path="url(#clip0_516_6)">
<g id="Group">
<path id="Vector" fill-rule="evenodd" clip-rule="evenodd" d="M24.9998 29.4207L36.0477 40.4686C36.634 41.0548 37.4291 41.3842 38.2582 41.3842C39.0872 41.3842 39.8823 41.0548 40.4686 40.4686C41.0548 39.8824 41.3842 39.0873 41.3842 38.2582C41.3842 37.4291 41.0548 36.634 40.4686 36.0478L29.4165 24.9999L40.4665 13.9519C40.7566 13.6617 40.9868 13.3171 41.1437 12.9379C41.3007 12.5587 41.3814 12.1523 41.3813 11.7418C41.3812 11.3314 41.3003 10.925 41.1432 10.5459C40.986 10.1668 40.7557 9.82229 40.4655 9.53215C40.1752 9.24202 39.8306 9.01189 39.4514 8.85492C39.0722 8.69795 38.6658 8.61721 38.2553 8.61731C37.8449 8.6174 37.4385 8.69834 37.0594 8.85549C36.6803 9.01263 36.3358 9.24292 36.0457 9.5332L24.9998 20.5811L13.9519 9.5332C13.6638 9.23459 13.3191 8.99637 12.9379 8.83241C12.5567 8.66845 12.1467 8.58206 11.7317 8.57826C11.3168 8.57446 10.9053 8.65333 10.5212 8.81028C10.137 8.96722 9.78801 9.1991 9.49446 9.49237C9.20091 9.78565 8.9687 10.1345 8.81139 10.5184C8.65408 10.9024 8.57482 11.3139 8.57823 11.7288C8.58164 12.1437 8.66765 12.5538 8.83125 12.9352C8.99484 13.3165 9.23275 13.6615 9.53108 13.9499L20.5832 24.9999L9.53316 36.0499C9.23483 36.3383 8.99693 36.6832 8.83333 37.0646C8.66973 37.4459 8.58372 37.856 8.58031 38.2709C8.5769 38.6859 8.65617 39.0973 8.81348 39.4813C8.97078 39.8653 9.20299 40.2141 9.49654 40.5073C9.79009 40.8006 10.1391 41.0325 10.5232 41.1894C10.9074 41.3464 11.3189 41.4253 11.7338 41.4215C12.1488 41.4177 12.5588 41.3313 12.94 41.1673C13.3211 41.0034 13.6659 40.7651 13.954 40.4665L24.9998 29.4207Z" fill="black"/>
</g>
</g>
<defs>
<clipPath id="clip0_516_6">
<rect width="50" height="50" fill="white"/>
</clipPath>
</defs>
</svg>
