<svg width="50" height="50" viewBox="0 0 50 50" fill="none" xmlns="http://www.w3.org/2000/svg">
<g id="mingcute:mail-fill" clip-path="url(#clip0_517_14)">
<g id="Group">
<path id="Vector" d="M4.30817 11.4205L22.7978 29.9122C23.3447 30.4595 24.0753 30.7845 24.8481 30.8241C25.6209 30.8638 26.381 30.6153 26.9811 30.1268L27.2186 29.9122L45.6957 11.433C45.7561 11.6622 45.7957 11.8955 45.8165 12.1351L45.8332 12.4997V37.4997C45.8335 38.5509 45.4365 39.5634 44.7217 40.3341C44.0069 41.1049 43.0272 41.5771 41.979 41.6559L41.6665 41.6663H8.33317C7.28197 41.6667 6.26949 41.2697 5.4987 40.5549C4.7279 39.8401 4.25576 38.8604 4.17692 37.8122L4.1665 37.4997V12.4997C4.1665 12.2497 4.18734 12.008 4.229 11.7705L4.30817 11.4205ZM41.6665 8.33301C41.9186 8.33301 42.1665 8.35384 42.4061 8.39759L42.7603 8.47884L25.0103 26.2288L7.254 8.47467C7.48317 8.41217 7.72067 8.37051 7.96234 8.34967L8.33317 8.33301H41.6665Z" fill="black"/>
</g>
</g>
<defs>
<clipPath id="clip0_517_14">
<rect width="50" height="50" fill="white"/>
</clipPath>
</defs>
</svg>
