<svg width="50" height="50" viewBox="0 0 50 50" fill="none" xmlns="http://www.w3.org/2000/svg">
<g id="mingcute:menu-fill" clip-path="url(#clip0_516_2)">
<g id="Group">
<path id="Vector" d="M41.6668 36.4587C42.4694 36.4591 43.241 36.7682 43.8218 37.322C44.4026 37.8758 44.7481 38.6319 44.7867 39.4335C44.8252 40.2351 44.5539 41.0208 44.029 41.6278C43.504 42.2348 42.7656 42.6166 41.9668 42.6941L41.6668 42.7087H8.3335C7.53096 42.7083 6.75934 42.3991 6.17852 41.8453C5.59771 41.2915 5.25222 40.5354 5.21365 39.7338C5.17509 38.9322 5.4464 38.1465 5.97136 37.5395C6.49633 36.9325 7.23471 36.5507 8.0335 36.4732L8.3335 36.4587H41.6668ZM41.6668 21.8753C42.4956 21.8753 43.2905 22.2046 43.8765 22.7906C44.4626 23.3767 44.7918 24.1715 44.7918 25.0003C44.7918 25.8291 44.4626 26.624 43.8765 27.21C43.2905 27.7961 42.4956 28.1253 41.6668 28.1253H8.3335C7.50469 28.1253 6.70984 27.7961 6.12379 27.21C5.53774 26.624 5.2085 25.8291 5.2085 25.0003C5.2085 24.1715 5.53774 23.3767 6.12379 22.7906C6.70984 22.2046 7.50469 21.8753 8.3335 21.8753H41.6668ZM41.6668 7.29199C42.4956 7.29199 43.2905 7.62123 43.8765 8.20728C44.4626 8.79333 44.7918 9.58819 44.7918 10.417C44.7918 11.2458 44.4626 12.0406 43.8765 12.6267C43.2905 13.2128 42.4956 13.542 41.6668 13.542H8.3335C7.50469 13.542 6.70984 13.2128 6.12379 12.6267C5.53774 12.0406 5.2085 11.2458 5.2085 10.417C5.2085 9.58819 5.53774 8.79333 6.12379 8.20728C6.70984 7.62123 7.50469 7.29199 8.3335 7.29199H41.6668Z" fill="black"/>
</g>
</g>
<defs>
<clipPath id="clip0_516_2">
<rect width="50" height="50" fill="white"/>
</clipPath>
</defs>
</svg>
