<svg width="50" height="50" viewBox="0 0 50 50" fill="none" xmlns="http://www.w3.org/2000/svg">
<g id="mdi:user">
<path id="Vector" d="M25.0002 8.33301C27.2103 8.33301 29.3299 9.21098 30.8927 10.7738C32.4555 12.3366 33.3335 14.4562 33.3335 16.6663C33.3335 18.8765 32.4555 20.9961 30.8927 22.5589C29.3299 24.1217 27.2103 24.9997 25.0002 24.9997C22.79 24.9997 20.6704 24.1217 19.1076 22.5589C17.5448 20.9961 16.6668 18.8765 16.6668 16.6663C16.6668 14.4562 17.5448 12.3366 19.1076 10.7738C20.6704 9.21098 22.79 8.33301 25.0002 8.33301ZM25.0002 29.1663C34.2085 29.1663 41.6668 32.8955 41.6668 37.4997V41.6663H8.3335V37.4997C8.3335 32.8955 15.7918 29.1663 25.0002 29.1663Z" fill="black"/>
</g>
</svg>
